<svg width="56" height="56" viewBox="0 0 56 56" fill="none" xmlns="http://www.w3.org/2000/svg">
<g id="appartment 1" clip-path="url(#clip0_1_2231)">
<g id="Group">
<g id="Group_2">
<g id="Group_3">
<path id="Vector" d="M10.5 22.6407H12.1406C12.7447 22.6407 13.2344 22.151 13.2344 21.547V19.9065C13.2344 19.3024 12.7447 18.8127 12.1406 18.8127H10.5C9.89581 18.8127 9.40625 19.3024 9.40625 19.9065V21.547C9.40625 22.151 9.89581 22.6407 10.5 22.6407Z" fill="#19BCE4"/>
<path id="Vector_2" d="M10.5 29.2032H12.1406C12.7447 29.2032 13.2344 28.7135 13.2344 28.1095V26.4687C13.2344 25.8646 12.7447 25.3749 12.1406 25.3749H10.5C9.89581 25.3749 9.40625 25.8646 9.40625 26.4687V28.1095C9.40625 28.7135 9.89581 29.2032 10.5 29.2032Z" fill="#19BCE4"/>
<path id="Vector_3" d="M10.5 35.7655H12.1406C12.7447 35.7655 13.2344 35.2758 13.2344 34.6718V33.0312C13.2344 32.4273 12.7447 31.9375 12.1406 31.9375H10.5C9.89581 31.9375 9.40625 32.4273 9.40625 33.0312V34.6718C9.40625 35.2757 9.89581 35.7655 10.5 35.7655Z" fill="#19BCE4"/>
<path id="Vector_4" d="M10.5 42.3279H12.1406C12.7447 42.3279 13.2344 41.8381 13.2344 41.2341V39.5937C13.2344 38.9897 12.7447 38.5 12.1406 38.5H10.5C9.89581 38.5 9.40625 38.9897 9.40625 39.5937V41.2341C9.40625 41.8381 9.89581 42.3279 10.5 42.3279Z" fill="#19BCE4"/>
<path id="Vector_5" d="M16.2422 22.6407H17.8829C18.4869 22.6407 18.9767 22.151 18.9767 21.547V19.9065C18.9767 19.3024 18.4869 18.8127 17.8829 18.8127H16.2422C15.6381 18.8127 15.1484 19.3024 15.1484 19.9065V21.547C15.1484 22.151 15.6381 22.6407 16.2422 22.6407Z" fill="#19BCE4"/>
<path id="Vector_6" d="M16.2422 29.2032H17.8829C18.4869 29.2032 18.9767 28.7135 18.9767 28.1095V26.4687C18.9767 25.8646 18.4869 25.3749 17.8829 25.3749H16.2422C15.6381 25.3749 15.1484 25.8646 15.1484 26.4687V28.1095C15.1484 28.7135 15.6381 29.2032 16.2422 29.2032Z" fill="#19BCE4"/>
<path id="Vector_7" d="M16.2422 35.7655H17.8829C18.4869 35.7655 18.9767 35.2758 18.9767 34.6718V33.0312C18.9767 32.4273 18.4869 31.9375 17.8829 31.9375H16.2422C15.6381 31.9375 15.1484 32.4273 15.1484 33.0312V34.6718C15.1484 35.2757 15.6381 35.7655 16.2422 35.7655Z" fill="#19BCE4"/>
<path id="Vector_8" d="M16.2422 42.3279H17.8829C18.4869 42.3279 18.9767 41.8381 18.9767 41.2341V39.5937C18.9767 38.9897 18.4869 38.5 17.8829 38.5H16.2422C15.6381 38.5 15.1484 38.9897 15.1484 39.5937V41.2341C15.1484 41.8381 15.6381 42.3279 16.2422 42.3279Z" fill="#19BCE4"/>
<path id="Vector_9" d="M21.9834 22.6407H23.6241C24.2282 22.6407 24.7179 22.151 24.7179 21.547V19.9065C24.7179 19.3024 24.2282 18.8127 23.6241 18.8127H21.9834C21.3794 18.8127 20.8896 19.3024 20.8896 19.9065V21.547C20.8896 22.151 21.3793 22.6407 21.9834 22.6407Z" fill="#19BCE4"/>
<path id="Vector_10" d="M21.9834 29.2032H23.6241C24.2282 29.2032 24.7179 28.7135 24.7179 28.1095V26.4687C24.7179 25.8646 24.2282 25.3749 23.6241 25.3749H21.9834C21.3794 25.3749 20.8896 25.8646 20.8896 26.4687V28.1095C20.8896 28.7135 21.3793 29.2032 21.9834 29.2032Z" fill="#19BCE4"/>
<path id="Vector_11" d="M21.9834 35.7655H23.6241C24.2282 35.7655 24.7179 35.2758 24.7179 34.6718V33.0312C24.7179 32.4273 24.2282 31.9375 23.6241 31.9375H21.9834C21.3794 31.9375 20.8896 32.4273 20.8896 33.0312V34.6718C20.8896 35.2757 21.3793 35.7655 21.9834 35.7655Z" fill="#19BCE4"/>
<path id="Vector_12" d="M21.9834 42.3279H23.6241C24.2282 42.3279 24.7179 41.8381 24.7179 41.2341V39.5937C24.7179 38.9897 24.2282 38.5 23.6241 38.5H21.9834C21.3794 38.5 20.8896 38.9897 20.8896 39.5937V41.2341C20.8896 41.8381 21.3793 42.3279 21.9834 42.3279Z" fill="#19BCE4"/>
<path id="Vector_13" d="M32.375 22.6407H34.0156C34.6197 22.6407 35.1094 22.151 35.1094 21.547V19.9065C35.1094 19.3024 34.6197 18.8127 34.0156 18.8127H32.375C31.7708 18.8127 31.2812 19.3024 31.2812 19.9065V21.547C31.2812 22.151 31.7708 22.6407 32.375 22.6407Z" fill="#19BCE4"/>
<path id="Vector_14" d="M32.375 16.0783H34.0156C34.6197 16.0783 35.1094 15.5885 35.1094 14.9846V13.3442C35.1094 12.7402 34.6197 12.2504 34.0156 12.2504H32.375C31.7708 12.2504 31.2812 12.7402 31.2812 13.3442V14.9846C31.2812 15.5885 31.7708 16.0783 32.375 16.0783Z" fill="#19BCE4"/>
<path id="Vector_15" d="M32.375 9.5164H34.0156C34.6197 9.5164 35.1094 9.02662 35.1094 8.42265V6.7817C35.1094 6.17774 34.6197 5.68796 34.0156 5.68796H32.375C31.7708 5.68796 31.2812 6.17774 31.2812 6.7817V8.42265C31.2812 9.02662 31.7708 9.5164 32.375 9.5164Z" fill="#19BCE4"/>
<path id="Vector_16" d="M32.375 29.2032H34.0156C34.6197 29.2032 35.1094 28.7135 35.1094 28.1095V26.4687C35.1094 25.8646 34.6197 25.3749 34.0156 25.3749H32.375C31.7708 25.3749 31.2812 25.8646 31.2812 26.4687V28.1095C31.2812 28.7135 31.7708 29.2032 32.375 29.2032Z" fill="#19BCE4"/>
<path id="Vector_17" d="M32.375 35.7655H34.0156C34.6197 35.7655 35.1094 35.2758 35.1094 34.6718V33.0312C35.1094 32.4273 34.6197 31.9375 34.0156 31.9375H32.375C31.7708 31.9375 31.2812 32.4273 31.2812 33.0312V34.6718C31.2812 35.2757 31.7708 35.7655 32.375 35.7655Z" fill="#19BCE4"/>
<path id="Vector_18" d="M32.375 42.3279H34.0156C34.6197 42.3279 35.1094 41.8381 35.1094 41.2341V39.5937C35.1094 38.9897 34.6197 38.5 34.0156 38.5H32.375C31.7708 38.5 31.2812 38.9897 31.2812 39.5937V41.2341C31.2812 41.8381 31.7708 42.3279 32.375 42.3279Z" fill="#19BCE4"/>
<path id="Vector_19" d="M38.1172 22.6407H39.7578C40.3619 22.6407 40.8515 22.151 40.8515 21.547V19.9065C40.8515 19.3024 40.3619 18.8127 39.7578 18.8127H38.1172C37.5132 18.8127 37.0234 19.3024 37.0234 19.9065V21.547C37.0234 22.151 37.5132 22.6407 38.1172 22.6407Z" fill="#19BCE4"/>
<path id="Vector_20" d="M38.1172 16.0783H39.7578C40.3619 16.0783 40.8515 15.5885 40.8515 14.9846V13.3442C40.8515 12.7402 40.3619 12.2504 39.7578 12.2504H38.1172C37.5132 12.2504 37.0234 12.7402 37.0234 13.3442V14.9846C37.0234 15.5885 37.5132 16.0783 38.1172 16.0783Z" fill="#19BCE4"/>
<path id="Vector_21" d="M38.1172 9.5164H39.7578C40.3619 9.5164 40.8515 9.02662 40.8515 8.42265V6.7817C40.8515 6.17774 40.3619 5.68796 39.7578 5.68796H38.1172C37.5132 5.68796 37.0234 6.17774 37.0234 6.7817V8.42265C37.0234 9.02662 37.5132 9.5164 38.1172 9.5164Z" fill="#19BCE4"/>
<path id="Vector_22" d="M38.1172 29.2032H39.7578C40.3619 29.2032 40.8515 28.7135 40.8515 28.1095V26.4687C40.8515 25.8646 40.3619 25.3749 39.7578 25.3749H38.1172C37.5132 25.3749 37.0234 25.8646 37.0234 26.4687V28.1095C37.0234 28.7135 37.5132 29.2032 38.1172 29.2032Z" fill="#19BCE4"/>
<path id="Vector_23" d="M38.1172 35.7655H39.7578C40.3619 35.7655 40.8515 35.2758 40.8515 34.6718V33.0312C40.8515 32.4273 40.3619 31.9375 39.7578 31.9375H38.1172C37.5132 31.9375 37.0234 32.4273 37.0234 33.0312V34.6718C37.0234 35.2757 37.5132 35.7655 38.1172 35.7655Z" fill="#19BCE4"/>
<path id="Vector_24" d="M38.1172 42.3279H39.7578C40.3619 42.3279 40.8515 41.8381 40.8515 41.2341V39.5937C40.8515 38.9897 40.3619 38.5 39.7578 38.5H38.1172C37.5132 38.5 37.0234 38.9897 37.0234 39.5937V41.2341C37.0234 41.8381 37.5132 42.3279 38.1172 42.3279Z" fill="#19BCE4"/>
<path id="Vector_25" d="M43.8594 22.6407H45.4999C46.1038 22.6407 46.5936 22.151 46.5936 21.547V19.9065C46.5936 19.3024 46.1038 18.8127 45.4999 18.8127H43.8594C43.2554 18.8127 42.7656 19.3024 42.7656 19.9065V21.547C42.7656 22.151 43.2554 22.6407 43.8594 22.6407Z" fill="#19BCE4"/>
<path id="Vector_26" d="M43.8594 16.0783H45.4999C46.1038 16.0783 46.5936 15.5885 46.5936 14.9846V13.3442C46.5936 12.7402 46.1038 12.2504 45.4999 12.2504H43.8594C43.2554 12.2504 42.7656 12.7402 42.7656 13.3442V14.9846C42.7656 15.5885 43.2554 16.0783 43.8594 16.0783Z" fill="#19BCE4"/>
<path id="Vector_27" d="M43.8594 9.5164H45.4999C46.1038 9.5164 46.5936 9.02662 46.5936 8.42265V6.7817C46.5936 6.17774 46.1038 5.68796 45.4999 5.68796H43.8594C43.2554 5.68796 42.7656 6.17774 42.7656 6.7817V8.42265C42.7656 9.02662 43.2554 9.5164 43.8594 9.5164Z" fill="#19BCE4"/>
<path id="Vector_28" d="M43.8594 29.2032H45.4999C46.1038 29.2032 46.5936 28.7135 46.5936 28.1095V26.4687C46.5936 25.8646 46.1038 25.3749 45.4999 25.3749H43.8594C43.2554 25.3749 42.7656 25.8646 42.7656 26.4687V28.1095C42.7656 28.7135 43.2554 29.2032 43.8594 29.2032Z" fill="#19BCE4"/>
<path id="Vector_29" d="M43.8594 35.7655H45.4999C46.1038 35.7655 46.5936 35.2758 46.5936 34.6718V33.0312C46.5936 32.4273 46.1038 31.9375 45.4999 31.9375H43.8594C43.2554 31.9375 42.7656 32.4273 42.7656 33.0312V34.6718C42.7656 35.2757 43.2554 35.7655 43.8594 35.7655Z" fill="#19BCE4"/>
<path id="Vector_30" d="M43.8594 42.3279H45.4999C46.1038 42.3279 46.5936 41.8381 46.5936 41.2341V39.5937C46.5936 38.9897 46.1038 38.5 45.4999 38.5H43.8594C43.2554 38.5 42.7656 38.9897 42.7656 39.5937V41.2341C42.7656 41.8381 43.2554 42.3279 43.8594 42.3279Z" fill="#19BCE4"/>
<path id="Vector_31" d="M12.6621 49.4377C12.058 49.4377 11.5684 49.9275 11.5684 50.5315C11.5684 51.1356 12.058 51.6252 12.6621 51.6252H12.6879C13.2919 51.6252 13.7817 51.1356 13.7817 50.5315C13.7817 49.9274 13.2919 49.4377 12.6879 49.4377H12.6621Z" fill="#19BCE4"/>
<path id="Vector_32" d="M34.5371 49.4377C33.933 49.4377 33.4434 49.9275 33.4434 50.5315C33.4434 51.1356 33.933 51.6252 34.5371 51.6252H34.5628C35.1668 51.6252 35.6565 51.1356 35.6565 50.5315C35.6565 49.9275 35.1668 49.4377 34.5628 49.4377H34.5371Z" fill="#19BCE4"/>
<path id="Vector_33" d="M1.11956 53.8124H1.09375C0.489561 53.8124 0 54.3022 0 54.9062C0 55.5102 0.489561 55.9999 1.09375 55.9999H1.11956C1.72352 55.9999 2.2133 55.5102 2.2133 54.9062C2.2133 54.3021 1.72363 53.8124 1.11956 53.8124Z" fill="#19BCE4"/>
<path id="Vector_34" d="M54.9064 53.8124H54.8804C54.2763 53.8124 53.7866 54.3022 53.7866 54.9062C53.7866 55.5102 54.2763 55.9999 54.8804 55.9999H54.9064C55.5105 55.9999 56.0002 55.5102 56.0002 54.9062C56.0002 54.3021 55.5104 53.8124 54.9064 53.8124Z" fill="#19BCE4"/>
<path id="Vector_35" d="M51.7376 53.8125H50.9679V1.09393C50.9679 0.489853 50.4782 0.000183105 49.8742 0.000183105H27.9996C27.3954 0.000183105 26.9059 0.489853 26.9059 1.09393V14.438H6.12469C5.52051 14.438 5.03095 14.9277 5.03095 15.5317V53.8125H4.26171C3.65764 53.8125 3.16797 54.3023 3.16797 54.9062C3.16797 55.5102 3.65764 56 4.26171 56H6.12469H17.0622H23.6248H27.9996H38.9371H45.4994H49.8742H49.8743H49.8745H51.7376C52.3417 56 52.8314 55.5102 52.8314 54.9062C52.8314 54.3022 52.3417 53.8125 51.7376 53.8125ZM22.5311 53.8125H18.1559V49.4378H22.5311V53.8125ZM26.9059 53.8125H24.7186V48.3441C24.7186 47.7401 24.2289 47.2503 23.6248 47.2503H17.0622C16.458 47.2503 15.9684 47.7401 15.9684 48.3441V53.8125H7.21844V51.6252H9.51902C10.123 51.6252 10.6128 51.1356 10.6128 50.5315C10.6128 49.9275 10.123 49.4377 9.51902 49.4377H7.21844V16.6255H26.9059V53.8125ZM44.4057 53.8125H40.0308V49.4378H44.4057V53.8125ZM48.7804 53.8125H46.5932V48.3441C46.5932 47.7401 46.1034 47.2503 45.4994 47.2503H38.9371C38.333 47.2503 37.8433 47.7401 37.8433 48.3441V53.8125H29.0934V51.6252H31.3938C31.9979 51.6252 32.4876 51.1356 32.4876 50.5315C32.4876 49.9275 31.9979 49.4377 31.3938 49.4377H29.0934V15.5317V2.18768H48.7804V53.8125Z" fill="#19BCE4"/>
</g>
</g>
</g>
</g>
<defs>
<clipPath id="clip0_1_2231">
<rect width="56" height="56" fill="white"/>
</clipPath>
</defs>
</svg>
