<svg width="16" height="16" viewBox="0 0 16 16" fill="none" xmlns="http://www.w3.org/2000/svg">
<g id="playstore 1" clip-path="url(#clip0_1_2409)">
<g id="Group">
<path id="Vector" d="M11.9478 5.4881C10.0891 4.4485 7.10585 2.77915 2.47859 0.188243C2.16662 -0.017789 1.80768 -0.044789 1.49756 0.0601799L9.43664 7.99926L11.9478 5.4881Z" fill="#32BBFF"/>
<path id="Vector_2" d="M1.49826 0.0600586C1.44013 0.0797461 1.38357 0.103496 1.32948 0.132184C0.987008 0.317434 0.735352 0.673904 0.735352 1.12475V14.8735C0.735352 15.3244 0.986977 15.6808 1.32948 15.8661C1.38348 15.8947 1.44001 15.9186 1.49807 15.9384L9.43734 7.99914L1.49826 0.0600586Z" fill="#32BBFF"/>
<path id="Vector_3" d="M9.43634 7.99927L1.49707 15.9385C1.80729 16.0442 2.16623 16.0193 2.47829 15.8103C6.96574 13.2975 9.91537 11.6479 11.7956 10.5995C11.8479 10.5701 11.8992 10.5413 11.9499 10.5128L9.43634 7.99927Z" fill="#32BBFF"/>
</g>
<path id="Vector_4" d="M0.735352 7.99951V14.8739C0.735352 15.3247 0.986977 15.6812 1.32948 15.8664C1.38348 15.8951 1.44001 15.9189 1.49807 15.9388L9.43734 7.99951H0.735352Z" fill="#2C9FD9"/>
<path id="Vector_5" d="M2.48087 0.188373C2.1104 -0.0562529 1.67352 -0.0492842 1.33105 0.132466L9.31841 8.11986L11.95 5.48823C10.0914 4.44863 7.10813 2.77928 2.48087 0.188373Z" fill="#29CC5E"/>
<path id="Vector_6" d="M9.31848 7.87891L1.33105 15.8663C1.67356 16.048 2.1104 16.0585 2.48087 15.8104C6.96832 13.2975 9.91795 11.648 11.7981 10.5995C11.8505 10.5701 11.9018 10.5414 11.9524 10.5129L9.31848 7.87891Z" fill="#D93F21"/>
<path id="Vector_7" d="M15.2634 7.99945C15.2634 7.61852 15.0712 7.23408 14.6902 7.02089C14.6902 7.02089 13.9777 6.62336 11.7939 5.40186L9.19629 7.99945L11.7964 10.5996C13.9563 9.38689 14.6902 8.97799 14.6902 8.97799C15.0712 8.76483 15.2634 8.38039 15.2634 7.99945Z" fill="#FFD500"/>
<path id="Vector_8" d="M14.6902 8.97808C15.0712 8.76489 15.2634 8.38045 15.2634 7.99951H9.19629L11.7964 10.5997C13.9563 9.38699 14.6902 8.97808 14.6902 8.97808Z" fill="#FFAA00"/>
</g>
<defs>
<clipPath id="clip0_1_2409">
<rect width="16" height="16" fill="white"/>
</clipPath>
</defs>
</svg>
