<svg width="40" height="40" viewBox="0 0 40 40" fill="none" xmlns="http://www.w3.org/2000/svg">
<g id="house-of-your-dreams 1" clip-path="url(#clip0_1_2375)">
<g id="Group">
<g id="Group_2">
<path id="Vector" d="M20.5935 8.12908C20.2515 7.83393 19.748 7.83393 19.406 8.12908L5.70473 19.9467C5.50502 20.1187 5.38965 20.3704 5.38965 20.636V37.7262C5.38965 38.2298 5.79666 38.6359 6.29856 38.6359H33.7011C34.2029 38.6359 34.61 38.2296 34.61 37.7262V20.636C34.61 20.3703 34.4947 20.1185 34.2949 19.9467L20.5935 8.12908ZM32.7915 36.8182H7.20817V21.0509L19.9998 10.0162L32.7915 21.0509V36.8182Z" fill="#19BCE4"/>
<path id="Vector_2" d="M39.3666 17.4382L21.1853 1.80285C20.503 1.21773 19.496 1.21773 18.8138 1.80285L0.63237 17.4382C-0.12889 18.0926 -0.215627 19.2403 0.438827 20.0024C1.09511 20.7628 2.24261 20.8497 3.00303 20.1951L19.9995 5.57884L36.9959 20.1951C37.3396 20.4904 37.7607 20.6362 38.1799 20.6362C38.692 20.6362 39.2007 20.4209 39.5601 20.0024C40.2147 19.2403 40.1278 18.0926 39.3666 17.4382Z" fill="#19BCE4"/>
<path id="Vector_3" d="M15.5891 18.3579C13.3564 18.3579 10.8443 19.5784 10.4902 23.0003C9.78 29.863 19.3773 35.0054 19.7853 35.2224C19.8521 35.2571 19.9251 35.2745 19.9979 35.2745C20.0701 35.2745 20.1438 35.2571 20.2107 35.2224C20.6187 35.0054 30.2159 29.863 29.5075 23.0003C29.1542 19.5784 26.6413 18.3579 24.4077 18.3579C22.8253 18.3579 21.2072 18.9186 19.9981 19.87C18.7887 18.9186 17.1699 18.3579 15.5891 18.3579Z" fill="#19BCE4"/>
</g>
</g>
</g>
<defs>
<clipPath id="clip0_1_2375">
<rect width="40" height="40" fill="white"/>
</clipPath>
</defs>
</svg>
