<svg width="16" height="16" viewBox="0 0 16 16" fill="none" xmlns="http://www.w3.org/2000/svg">
<g id="Star 16px" clip-path="url(#clip0_1_2296)">
<path id="Star" d="M7.31185 1.0868C7.57296 0.484638 8.42691 0.484639 8.68803 1.0868L10.0916 4.32364C10.309 4.82487 10.7817 5.16829 11.3255 5.22011L14.8377 5.55478C15.4911 5.61704 15.7549 6.42919 15.2629 6.86361L12.6183 9.19875C12.2087 9.56036 12.0282 10.116 12.147 10.6493L12.914 14.093C13.0567 14.7336 12.3658 15.2355 11.8006 14.9019L8.76252 13.1082C8.29207 12.8305 7.70781 12.8305 7.23735 13.1082L4.19924 14.9019C3.63406 15.2355 2.9432 14.7336 3.08589 14.093L3.85292 10.6493C3.97169 10.116 3.79114 9.56036 3.38161 9.19875L0.736932 6.86361C0.244934 6.42919 0.508819 5.61704 1.1622 5.55478L4.67435 5.22011C5.21821 5.16829 5.69089 4.82487 5.90824 4.32364L7.31185 1.0868Z" fill="#FEBB35"/>
</g>
<defs>
<clipPath id="clip0_1_2296">
<rect width="16" height="16" fill="white"/>
</clipPath>
</defs>
</svg>
