<svg width="56" height="56" viewBox="0 0 56 56" fill="none" xmlns="http://www.w3.org/2000/svg">
<g id="support 1" clip-path="url(#clip0_1_2460)">
<path id="Vector" d="M48.3782 21.678V20.3783C48.3782 9.11542 39.265 0.000976562 28.0009 0.000976562C16.7649 0.000976562 7.62365 9.14221 7.62365 20.3783V21.678C3.15411 22.9455 -0.260224 27.2137 0.0167 32.3733C0.316024 37.9496 4.99386 42.3118 10.4981 42.3118C13.2106 42.3118 15.4098 40.1227 15.4098 37.4085V26.1818C15.4098 23.6125 13.4284 21.4942 10.9178 21.2958V20.3784C10.9178 10.9587 18.5812 3.29518 28.0009 3.29518C37.4433 3.29518 45.0841 10.9351 45.0841 20.3784V21.2955C42.5763 21.4912 40.5921 23.6108 40.5921 26.1819V37.4086C40.5921 39.9776 42.5645 42.082 45.0841 42.2932C45.0841 46.7513 41.5934 49.8518 37.6779 49.8518H34.0926C33.4337 48.182 31.8052 46.9969 29.9041 46.9969H26.0976C23.6153 46.9969 21.5957 49.0165 21.5957 51.4988C21.5957 53.9811 23.6153 56.0008 26.0976 56.0008H29.9041C31.8052 56.0008 33.4337 54.8157 34.0926 53.1459H37.6778C43.578 53.1459 48.3781 48.3453 48.3781 42.4444V41.9043C52.5808 40.693 55.7415 36.9129 55.9851 32.3734C56.2611 27.2315 52.8634 22.9501 48.3782 21.678ZM12.1157 26.1818V37.4085C12.1157 38.2406 11.476 39.0374 10.3708 39.0164C6.6105 38.9426 3.50724 35.9471 3.30597 32.1968C3.08186 28.0227 6.38793 24.5732 10.5169 24.5732H10.5451C11.4111 24.5765 12.1157 25.2981 12.1157 26.1818ZM29.9042 52.7066H26.0977C25.4318 52.7066 24.8899 52.1647 24.8899 51.4987C24.8899 50.8328 25.4318 50.2909 26.0977 50.2909H29.9042C30.5712 50.2909 31.1135 50.8345 31.1119 51.5019C31.11 52.1664 30.569 52.7066 29.9042 52.7066ZM52.6958 32.1968C52.4945 35.9471 49.3913 38.9426 45.6311 39.0164C44.5461 39.0383 43.8861 38.2584 43.8861 37.4085V26.1818C43.8861 25.2981 44.5907 24.5765 45.4504 24.5732H45.4848C49.6144 24.5732 52.9199 28.0231 52.6958 32.1968Z" fill="#19BCE4"/>
<path id="Vector_2" d="M29.1639 40.8964L36.7694 33.291C39.1386 30.9218 39.1388 27.0871 36.7694 24.7178C34.59 22.5383 30.8133 22.1014 27.9993 24.9146C25.2235 22.1395 21.4415 22.5054 19.2292 24.7177C16.8599 27.087 16.8597 30.9216 19.2292 33.291L26.8347 40.8964C27.4777 41.5396 28.5206 41.5397 29.1639 40.8964ZM21.5583 27.047C22.6376 25.9678 24.3937 25.9677 25.473 27.047L26.8345 28.4084C27.4776 29.0516 28.5205 29.0516 29.1638 28.4084L30.5252 27.047C31.6046 25.9677 33.3605 25.9676 34.4399 27.047C35.5217 28.1286 35.5219 29.8797 34.4399 30.9617L27.9991 37.4024L21.5582 30.9617C20.4766 29.88 20.4764 28.129 21.5583 27.047Z" fill="#19BCE4"/>
</g>
<defs>
<clipPath id="clip0_1_2460">
<rect width="56" height="56" fill="white"/>
</clipPath>
</defs>
</svg>
