<svg width="56" height="56" viewBox="0 0 56 56" fill="none" xmlns="http://www.w3.org/2000/svg">
<g id="villa 1" clip-path="url(#clip0_1_2210)">
<g id="Group">
<g id="Group_2">
<path id="Vector" d="M55.9583 24.4588L52.225 12.3254C52.1045 11.9339 51.7427 11.6666 51.3329 11.6666H33.0528L22.1261 0.73989C21.762 0.375562 21.1704 0.375562 20.8063 0.73989L9.8796 11.6666H4.66624C4.25652 11.6666 3.89471 11.9339 3.77418 12.3254L0.0407732 24.4588C-0.0462893 24.742 0.00610131 25.0496 0.182086 25.2878C0.357961 25.526 0.636648 25.6667 0.932836 25.6667H3.73284V54.6C3.73284 55.1155 4.15076 55.5333 4.66613 55.5333H10.2661H16.7995H26.1328H32.6661H51.3328C51.8483 55.5333 52.2661 55.1153 52.2661 54.6V25.6666H55.0661C55.3623 25.6666 55.641 25.526 55.817 25.2878C55.993 25.0496 56.0454 24.7419 55.9583 24.4588ZM9.33284 53.6666H5.59954V25.6666H9.33284V53.6666ZM9.33284 23.8H4.66624H2.19655L5.35541 13.5333H9.33284V23.8ZM25.1995 53.6666H17.7328V38.7333H25.1995V53.6666ZM31.7328 24.7333V53.6666H27.0661V37.8C27.0661 37.2845 26.6482 36.8667 26.1328 36.8667H16.7995C16.2841 36.8667 15.8662 37.2846 15.8662 37.8V53.6667H11.1995V24.7333V12.9865L21.4662 2.7198L31.7329 12.9865V24.7333H31.7328ZM50.3995 53.6666H33.5995V25.6666H50.3995V53.6666ZM51.3328 23.8H33.5995V13.5333H50.6436L53.8024 23.8H51.3328Z" fill="#19BCE4"/>
</g>
</g>
<g id="Group_3">
<g id="Group_4">
<path id="Vector_2" d="M48.5336 30.3333H43.8669C43.3514 30.3333 42.9336 30.7512 42.9336 31.2666V47.1333C42.9336 47.6486 43.3515 48.0666 43.8669 48.0666H48.5336C49.0491 48.0666 49.4669 47.6486 49.4669 47.1333V31.2666C49.467 30.7512 49.0491 30.3333 48.5336 30.3333ZM47.6003 46.2H44.8003V32.2H47.6003V46.2Z" fill="#19BCE4"/>
</g>
</g>
<g id="Group_5">
<g id="Group_6">
<path id="Vector_3" d="M40.1337 30.3333H35.467C34.9515 30.3333 34.5337 30.7512 34.5337 31.2666V47.1333C34.5337 47.6486 34.9516 48.0666 35.467 48.0666H40.1337C40.6492 48.0666 41.067 47.6486 41.067 47.1333V31.2666C41.0671 30.7512 40.6492 30.3333 40.1337 30.3333ZM39.2004 46.2H36.4004V32.2H39.2004V46.2Z" fill="#19BCE4"/>
</g>
</g>
<g id="Group_7">
<g id="Group_8">
<path id="Vector_4" d="M26.1333 12.5997H16.8C16.2845 12.5997 15.8667 13.0177 15.8667 13.533V23.7997C15.8667 24.3151 16.2846 24.733 16.8 24.733H26.1333C26.6488 24.733 27.0666 24.3151 27.0666 23.7997V13.533C27.0667 13.0177 26.6488 12.5997 26.1333 12.5997ZM25.2 22.8663H17.7333V14.4663H25.2V22.8663Z" fill="#19BCE4"/>
</g>
</g>
</g>
<defs>
<clipPath id="clip0_1_2210">
<rect width="56" height="56" fill="white"/>
</clipPath>
</defs>
</svg>
